<?xml version="1.0" encoding="UTF-8"?>
<svg xmlns="http://www.w3.org/2000/svg" xmlns:xlink="http://www.w3.org/1999/xlink" viewBox="0 0 24 24" width="24px" height="24px">
<g id="surface579998">
<path style=" stroke:none;fill-rule:nonzero;fill:rgb(100%,100%,100%);fill-opacity:1;" d="M 4.5 3 C 2.578125 3 1 4.578125 1 6.5 L 1 18 C 1 19.644531 2.355469 21 4 21 L 8 21 L 8 13.675781 L 12 16.796875 L 16 13.675781 L 16 21 L 20 21 C 21.644531 21 23 19.644531 23 18 L 23 6.5 C 23 4.578125 21.421875 3 19.5 3 C 18.75 3 17.984375 3.242188 17.34375 3.742188 L 12 7.910156 L 6.65625 3.742188 C 6.015625 3.242188 5.25 3 4.5 3 Z M 4.5 5 C 4.832031 5 5.144531 5.097656 5.425781 5.320312 L 6 5.769531 L 6 9.574219 L 3 7.234375 L 3 6.5 C 3 5.660156 3.660156 5 4.5 5 Z M 19.5 5 C 20.339844 5 21 5.660156 21 6.5 L 21 7.230469 L 18 9.574219 L 18 5.765625 L 18.574219 5.316406 C 18.855469 5.097656 19.167969 5 19.5 5 Z M 8 7.328125 L 12 10.449219 L 16 7.328125 L 16 11.136719 L 12 14.261719 L 8 11.136719 Z M 3 9.769531 L 6 12.109375 L 6 19 L 4 19 C 3.433594 19 3 18.566406 3 18 Z M 21 9.769531 L 21 18 C 21 18.566406 20.566406 19 20 19 L 18 19 L 18 12.109375 Z M 21 9.769531 "/>
</g>
</svg>
