<?xml version="1.0" encoding="UTF-8"?>
<svg xmlns="http://www.w3.org/2000/svg" xmlns:xlink="http://www.w3.org/1999/xlink" viewBox="0 0 20 20" width="20px" height="20px">
<g id="surface562034">
<path style=" stroke:none;fill-rule:nonzero;fill:rgb(100%,100%,100%);fill-opacity:1;" d="M 17.5 2.5625 C 17.015625 2.539062 16.519531 2.683594 16.109375 2.988281 L 15.011719 3.796875 L 10 7.503906 L 5.035156 3.832031 C 4.96875 3.765625 4.875 3.726562 4.78125 3.71875 L 4.878906 3.71875 L 3.894531 2.992188 C 3.484375 2.6875 2.988281 2.542969 2.5 2.5625 C 2.011719 2.582031 1.535156 2.773438 1.164062 3.136719 C 0.691406 3.601562 0.398438 4.25 0.398438 4.964844 L 0.398438 6.335938 C 0.394531 6.375 0.394531 6.417969 0.398438 6.457031 L 0.398438 15.800781 C 0.398438 16.570312 1.03125 17.199219 1.800781 17.199219 L 4.800781 17.199219 C 5.019531 17.199219 5.199219 17.019531 5.199219 16.800781 L 5.199219 10.148438 L 9.761719 13.523438 C 9.902344 13.625 10.097656 13.625 10.238281 13.523438 L 14.800781 10.148438 L 14.800781 16.800781 C 14.800781 17.019531 14.980469 17.199219 15.199219 17.199219 L 18.199219 17.199219 C 18.96875 17.199219 19.601562 16.570312 19.601562 15.800781 L 19.601562 6.449219 C 19.605469 6.414062 19.605469 6.378906 19.601562 6.34375 L 19.601562 4.964844 C 19.601562 4.261719 19.316406 3.613281 18.851562 3.148438 C 18.839844 3.136719 18.832031 3.132812 18.839844 3.136719 C 18.839844 3.136719 18.835938 3.136719 18.835938 3.136719 C 18.464844 2.769531 17.988281 2.582031 17.5 2.5625 Z M 17.457031 3.359375 C 17.761719 3.371094 18.054688 3.488281 18.277344 3.707031 C 18.285156 3.714844 18.289062 3.71875 18.285156 3.714844 C 18.605469 4.035156 18.800781 4.476562 18.800781 4.964844 L 18.800781 6.199219 L 15.601562 8.5625 L 15.601562 4.398438 C 15.601562 4.386719 15.601562 4.371094 15.597656 4.359375 L 16.582031 3.632812 C 16.582031 3.632812 16.585938 3.632812 16.585938 3.632812 C 16.84375 3.441406 17.15625 3.347656 17.457031 3.359375 Z M 2.542969 3.363281 C 2.847656 3.351562 3.160156 3.441406 3.417969 3.632812 L 4.402344 4.359375 C 4.402344 4.375 4.398438 4.386719 4.398438 4.398438 L 4.398438 8.5625 L 1.199219 6.199219 L 1.199219 4.964844 C 1.199219 4.46875 1.402344 4.027344 1.726562 3.707031 C 1.945312 3.488281 2.238281 3.375 2.542969 3.363281 Z M 14.800781 4.949219 L 14.800781 9.15625 L 10 12.703125 L 5.199219 9.15625 L 5.199219 4.949219 L 9.761719 8.320312 C 9.902344 8.425781 10.097656 8.425781 10.238281 8.320312 Z M 1.199219 7.191406 L 4.398438 9.558594 L 4.398438 16.398438 L 1.800781 16.398438 C 1.464844 16.398438 1.199219 16.136719 1.199219 15.800781 Z M 18.800781 7.191406 L 18.800781 15.800781 C 18.800781 16.136719 18.535156 16.398438 18.199219 16.398438 L 15.601562 16.398438 L 15.601562 9.558594 Z M 18.800781 7.191406 "/>
</g>
</svg>
