<?xml version="1.0" encoding="UTF-8"?>
<svg xmlns="http://www.w3.org/2000/svg" xmlns:xlink="http://www.w3.org/1999/xlink" viewBox="0 0 24 24" width="24px" height="24px">
<g id="surface578780">
<path style=" stroke:none;fill-rule:nonzero;fill:rgb(100%,100%,100%);fill-opacity:1;" d="M 19.414062 1.441406 C 19.371094 1.4375 19.328125 1.445312 19.285156 1.453125 L 11.40625 3.375 C 11.253906 3.410156 11.132812 3.515625 11.074219 3.660156 L 10.234375 5.761719 L 7.679688 5.761719 C 7.546875 5.761719 7.417969 5.816406 7.328125 5.914062 L 1.566406 12.15625 C 1.390625 12.347656 1.398438 12.648438 1.589844 12.828125 L 7.628906 18.585938 C 7.71875 18.671875 7.835938 18.71875 7.960938 18.71875 L 10.714844 18.71875 L 11.554688 20.816406 C 11.617188 20.972656 11.753906 21.085938 11.917969 21.113281 L 20.296875 22.550781 C 20.550781 22.597656 20.792969 22.433594 20.851562 22.183594 L 22.546875 14.390625 C 22.574219 14.273438 22.554688 14.144531 22.492188 14.039062 L 21.375 12.207031 L 22.511719 9.804688 C 22.566406 9.691406 22.574219 9.5625 22.53125 9.441406 L 19.851562 1.761719 C 19.785156 1.574219 19.613281 1.449219 19.414062 1.441406 Z M 19.089844 2.488281 L 21.5625 9.570312 L 20.855469 11.0625 L 19.175781 5.617188 C 19.117188 5.414062 18.921875 5.273438 18.707031 5.28125 C 18.53125 5.285156 18.371094 5.386719 18.289062 5.542969 L 14.929688 12.265625 C 14.855469 12.417969 14.863281 12.601562 14.957031 12.742188 L 18.796875 18.605469 C 18.902344 18.765625 19.097656 18.84375 19.285156 18.8125 C 19.472656 18.777344 19.625 18.632812 19.667969 18.445312 L 20.859375 13.207031 L 21.570312 14.375 L 20.011719 21.527344 L 12.34375 20.210938 L 11.808594 18.871094 L 17.367188 19.902344 C 17.558594 19.9375 17.75 19.855469 17.855469 19.695312 C 17.960938 19.53125 17.960938 19.324219 17.855469 19.164062 L 13.835938 13.171875 C 13.75 13.039062 13.597656 12.960938 13.441406 12.960938 L 5.761719 12.960938 C 5.5625 12.960938 5.382812 13.082031 5.3125 13.265625 C 5.242188 13.453125 5.292969 13.660156 5.4375 13.792969 L 9.796875 17.761719 L 8.152344 17.761719 L 2.59375 12.457031 L 7.890625 6.71875 L 9.472656 6.71875 L 5.40625 11.199219 C 5.277344 11.339844 5.246094 11.539062 5.320312 11.714844 C 5.398438 11.886719 5.570312 12 5.761719 12 L 13.441406 12 C 13.621094 12 13.789062 11.898438 13.871094 11.734375 L 17.230469 5.015625 C 17.300781 4.867188 17.296875 4.695312 17.210938 4.554688 C 17.128906 4.414062 16.980469 4.324219 16.816406 4.320312 C 16.773438 4.316406 16.734375 4.320312 16.691406 4.332031 L 11.347656 5.566406 L 11.871094 4.25 Z M 15.914062 5.496094 L 13.144531 11.039062 L 6.84375 11.039062 L 10.816406 6.675781 Z M 18.613281 7.046875 L 20.144531 12.019531 L 18.984375 17.132812 L 15.914062 12.449219 Z M 7 13.921875 L 13.183594 13.921875 L 16.421875 18.75 L 11.261719 17.792969 Z M 7 13.921875 "/>
</g>
</svg>
